<svg xmlns="http://www.w3.org/2000/svg" viewBox="0 0 48 48" role="img" aria-label="Twin Adder">
  <defs>
    <linearGradient id="a-bg" x1="0" y1="0" x2="1" y2="1">
      <stop offset="0" stop-color="#12351e"/>
      <stop offset="1" stop-color="#06130b"/>
    </linearGradient>
    <linearGradient id="a-gold" x1="0" y1="0" x2="0" y2="1">
      <stop offset="0" stop-color="#ffe68d"/>
      <stop offset="1" stop-color="#a27618"/>
    </linearGradient>
  </defs>
  <path d="M8 4h32v27L24 44 8 31Z" fill="url(#a-bg)" stroke="#d6a64d" stroke-width="2"/>
  <path d="M24 10v26" stroke="url(#a-gold)" stroke-width="3" stroke-linecap="round"/>
  <path d="M18 14c-7 4-5 11 2 13 6 2 5 7-1 9" fill="none" stroke="#e8c856" stroke-width="3" stroke-linecap="round"/>
  <path d="M30 14c7 4 5 11-2 13-6 2-5 7 1 9" fill="none" stroke="#e8c856" stroke-width="3" stroke-linecap="round"/>
  <path d="M18 14l-4 1 3 3M30 14l4 1-3 3" fill="none" stroke="#fff1a8" stroke-width="2" stroke-linecap="round" stroke-linejoin="round"/>
  <circle cx="24" cy="9" r="3" fill="#ffd83f"/>
  <path d="M14 31h20" stroke="#ffd83f" stroke-width="3" stroke-linecap="round"/>
</svg>
